<svg width="843" height="771" viewBox="0 0 843 771" fill="none" xmlns="http://www.w3.org/2000/svg">
<g clip-path="url(#clip0)">
<path d="M786.949 457.466C803.808 414.963 810.688 369.158 807.057 323.578C803.427 277.997 789.384 233.859 766.009 194.56L288.663 260.654L746.113 165.319C718.282 129.085 682.486 99.7427 641.495 79.5622C600.505 59.3816 555.421 48.9047 509.732 48.9422C345.003 48.9422 211.464 182.482 211.464 347.211C211.467 360.825 212.395 374.424 214.24 387.912L786.949 457.466Z" fill="#4B596A"/>
<path d="M231.4 454.599C274.513 566.262 382.864 645.479 509.732 645.479C628.78 645.479 731.523 575.726 779.36 474.868L231.4 454.599Z" fill="#4B596A"/>
<path d="M771.989 558.337C771.989 675.55 599.169 770.564 385.994 770.564C271.471 770.564 168.598 743.146 97.914 699.587C51.7935 671.176 19.37 635.887 6.36307 596.889C2.16525 584.469 0.016149 571.448 0 558.337C0 441.135 319.872 -87.5488 385.994 346.122C452.116 779.792 771.989 441.135 771.989 558.337Z" fill="#C9C9C9"/>
<path opacity="0.1" d="M577.822 635.302C577.822 678.58 441.145 713.67 272.536 713.67C207.595 713.67 147.392 708.465 97.9142 699.587C51.7937 671.176 19.3702 635.887 6.36328 596.89C58.7065 573.04 158.293 556.933 272.536 556.933C441.145 556.933 577.822 592.024 577.822 635.302Z" fill="#4B596A"/>
<path d="M357.458 188.915C333.263 148.034 285.397 146.129 285.397 146.129C285.397 146.129 238.753 140.164 208.832 202.426C180.943 260.46 142.453 316.492 202.635 330.078L213.506 296.243L220.238 332.596C228.807 333.213 237.403 333.36 245.988 333.037C310.439 330.956 371.819 333.645 369.843 310.518C367.216 279.773 380.737 228.251 357.458 188.915Z" fill="#2F2E41"/>
<path d="M199.2 546.929C198.302 551.391 197.638 555.927 196.113 560.215C194.599 564.472 192.262 568.409 190.878 572.71C186.465 586.421 192.582 601.707 202.352 612.29C210.824 621.43 221.761 627.924 233.841 630.988C242.655 633.205 251.819 633.524 260.902 633.832C286.053 634.685 311.852 635.448 335.684 627.365C343.214 624.748 350.487 621.444 357.411 617.495C359.597 616.453 361.523 614.936 363.048 613.056C364.866 610.468 365.098 607.112 365.082 603.949C365.029 593.287 362.867 582.679 363.381 572.029C363.665 566.13 364.769 560.235 364.226 554.355C362.993 541.017 352.402 529.08 339.307 526.268C332.546 524.816 325.534 525.607 318.651 526.269C300.784 527.986 282.841 528.788 264.893 528.673C246.554 528.556 228.328 525.756 210.081 525.464C204.684 525.378 204.793 527.041 203.075 532.264C201.493 537.071 200.199 541.968 199.2 546.929V546.929Z" fill="#2F2E41"/>
<path d="M251.243 283.651C250.362 288.265 249.409 293.049 246.636 296.841C243.446 301.204 238.244 303.697 234.812 307.872C229.645 314.157 229.349 323.001 229.327 331.137C229.308 338.632 229.46 346.626 233.64 352.847C236.352 356.884 240.48 359.715 244.513 362.433C260.187 372.996 277.125 383.749 296.023 384.097C303.853 384.242 312.248 382.22 317.4 376.321C319.625 373.551 321.374 370.431 322.576 367.087C327.408 355.176 330.337 342.579 331.256 329.757C331.687 323.725 331.646 317.517 329.604 311.825C327.308 305.424 322.666 300.158 319.598 294.089C315.972 286.872 314.645 278.718 315.798 270.724C315.95 270.161 315.903 269.563 315.664 269.031C315.412 268.746 315.097 268.523 314.745 268.38C314.392 268.237 314.011 268.178 313.632 268.207L276.16 265.509C272.67 265.336 269.195 264.938 265.756 264.319C263.736 263.908 258.401 261.04 256.475 261.802C252.91 263.214 251.974 279.824 251.243 283.651Z" fill="#FFBD9E"/>
<path opacity="0.1" d="M251.243 284.82C250.362 289.435 249.409 294.218 246.636 298.01C243.446 302.373 238.244 304.866 234.812 309.042C229.645 315.327 229.349 324.171 229.327 332.306C229.308 339.801 229.46 347.795 233.64 354.016C236.352 358.054 240.48 360.885 244.513 363.603C260.187 374.166 277.125 384.919 296.023 385.267C303.853 385.411 312.248 383.389 317.4 377.491C319.625 374.721 321.374 371.6 322.576 368.257C327.408 356.346 330.337 343.748 331.256 330.927C331.687 324.895 331.646 318.687 329.604 312.995C327.308 306.594 322.666 301.327 319.598 295.258C315.972 288.042 314.645 279.887 315.798 271.893C315.95 271.331 315.903 270.732 315.664 270.2C315.412 269.915 315.097 269.693 314.745 269.55C314.392 269.407 314.011 269.348 313.632 269.377L276.16 266.679C272.67 266.506 269.195 266.108 265.756 265.489C263.736 265.078 258.401 262.209 256.475 262.972C252.91 264.384 251.974 280.994 251.243 284.82Z" fill="#4B596A"/>
<path d="M287.078 288.676C317.44 288.676 342.053 264.062 342.053 233.701C342.053 203.339 317.44 178.726 287.078 178.726C256.717 178.726 232.104 203.339 232.104 233.701C232.104 264.062 256.717 288.676 287.078 288.676Z" fill="#FFBD9E"/>
<path d="M258.953 356.831C261.819 359.826 264.855 362.791 268.61 364.547C272.344 366.293 276.552 366.728 280.673 366.844C290.582 367.123 301.325 365.307 308.219 358.182C317.105 348.999 316.813 334.186 323.778 323.472C324.339 322.501 325.105 321.663 326.023 321.017C327.191 320.381 328.511 320.078 329.84 320.139C338.637 320.057 346.3 325.763 353.216 331.2C356.314 333.636 359.49 336.159 361.444 339.582C362.812 342.25 363.748 345.118 364.219 348.079C367.651 364.832 368.762 381.962 369.865 399.028C370.475 408.454 371.084 417.889 371.039 427.335C370.89 458.455 363.656 489.054 356.464 519.332C355.537 523.233 354.268 527.594 350.721 529.462C349.139 530.173 347.441 530.588 345.709 530.685C325.107 533.105 304.463 535.527 283.721 535.847C275.627 535.972 267.536 535.776 259.449 535.259C258.057 535.241 256.677 535 255.361 534.546C253.574 533.689 252.039 532.385 250.903 530.761C239.684 516.623 239.022 497.078 239.093 479.03C239.269 434.903 240.845 390.812 243.823 346.756C244.069 343.12 244.123 338.704 241.502 335.843C246.22 343.396 252.782 350.381 258.953 356.831Z" fill="#D0CDE1"/>
<path d="M247.309 293.354C245.452 296.715 231.763 305.061 229.12 307.847C214.355 323.411 187.405 322.827 173.901 339.497C169.149 345.362 166.681 352.732 164.865 360.058C162.298 370.42 160.927 381.721 165.228 391.492C169.367 400.893 178.08 407.393 183.995 415.791C190.491 425.012 193.411 436.208 196.21 447.134C198.276 455.201 200.36 463.468 199.555 471.757C198.64 481.182 194.079 489.811 191.387 498.889C188.694 507.966 188.229 518.778 194.455 525.912C199.029 531.153 206.203 533.231 213.061 534.399C221.813 535.891 230.709 536.316 239.579 536.708C247.418 537.054 256.059 537.122 262.085 532.096C266.84 528.131 268.907 521.697 269.174 515.511C269.441 509.326 268.155 503.195 267.348 497.056C266.513 490.693 266.192 484.274 265.923 477.861C264.717 449.088 264.553 420.297 265.429 391.488C265.612 385.493 265.833 379.425 264.555 373.565C262.874 365.858 258.709 358.971 255.234 351.89C248.335 337.835 245.073 324.181 246.139 308.56C247.192 293.141 253.916 281.394 247.309 293.354Z" fill="#575A89"/>
<path d="M324.508 294.524C327.337 297.431 336.947 298.389 340.544 300.261C343.849 301.98 347.506 302.879 351.086 303.911C364.209 307.696 376.691 313.425 388.117 320.907C390.492 322.296 392.591 324.109 394.31 326.256C396.323 329.056 397.053 332.55 397.736 335.93C399.497 344.656 401.268 353.487 400.872 362.38C400.452 371.82 397.608 380.963 394.787 389.981L384.247 423.679C376.379 448.832 368.462 474.232 366.248 500.494C365.023 515.049 365.568 529.698 367.87 544.122C368.101 545.572 368.295 547.234 367.338 548.348C366.643 549.034 365.73 549.454 364.757 549.535C359.67 550.331 354.746 547.737 350.137 545.441C336.049 538.431 321.015 533.511 305.508 530.838C311.567 522.081 316.243 512.443 319.37 502.263C321.145 495.799 322.544 489.238 323.558 482.611L328.461 454.252C330.259 443.853 332.06 433.427 332.667 422.892C333.038 418.942 332.808 414.959 331.985 411.078C331.046 407.334 329.179 403.903 327.506 400.425C319.425 383.616 315.634 364.434 318.813 346.056C320.205 338.014 322.909 329.96 321.781 321.877C320.697 314.104 321.824 308.064 319.83 300.372C311.642 268.791 319.188 289.055 324.508 294.524Z" fill="#575A89"/>
<path d="M173.76 366.074C170.077 373.718 163.918 380.231 161.821 388.454C161.006 392.297 160.656 396.225 160.78 400.151C160.731 406.07 160.698 412.108 162.516 417.74C163.686 421.366 165.589 424.711 166.96 428.266C168.872 433.232 169.723 438.544 169.46 443.859C169.09 451.223 166.589 458.371 166.393 465.742C166.086 477.332 171.447 488.228 176.678 498.576C177.994 495.316 180.008 492.382 182.576 489.981C185.145 487.579 188.208 485.768 191.549 484.674C194.891 483.58 198.432 483.23 201.923 483.647C205.415 484.064 208.773 485.239 211.763 487.09C213.143 485.815 213.29 483.722 213.344 481.845C213.731 468.398 214.104 454.95 214.463 441.503C215.03 420.705 215.569 399.629 210.785 379.381C208.625 370.239 205.264 361.132 199.102 354.041C195.857 350.308 184.843 340.473 179.518 344.656C177.122 346.537 177.682 351.657 177.303 354.25C176.73 358.348 175.535 362.335 173.76 366.074Z" fill="#575A89"/>
<path d="M401.948 344.043C403.69 349.469 403.795 355.267 403.829 360.965C403.9 372.59 403.746 384.213 403.367 395.834C403.173 401.784 402.906 407.815 401.102 413.488C399.912 417.229 398.076 420.737 396.848 424.466C393.166 435.64 395.177 447.759 395.493 459.52C395.716 463.326 395.391 467.145 394.529 470.859C392.585 478.15 387.363 484.041 383.718 490.648C380.257 496.922 378.168 503.955 374.034 509.808C369.899 515.661 362.742 520.299 355.805 518.502C350.549 517.141 346.814 512.488 344.231 507.713C338.594 497.213 336.666 485.117 338.759 473.385C341.353 459.11 349.738 446.447 352.761 432.258C356.914 412.773 350.603 392.666 350.791 372.744C350.705 369.621 351.129 366.505 352.045 363.519C353.631 358.968 357.037 355.334 360.184 351.685C364.117 347.124 367.77 342.329 371.124 337.328C373.377 333.968 376.437 325.326 380.431 324.607C389.349 323.003 399.735 337.154 401.948 344.043Z" fill="#575A89"/>
<path d="M127.487 538.263C122.556 537.024 117.475 536.484 112.393 536.659C107.053 536.954 101.838 538.382 97.0935 540.849C92.3489 543.316 88.1839 546.764 84.8753 550.965C81.5667 555.167 79.1905 560.024 77.9045 565.214C76.6184 570.405 76.4522 575.81 77.4168 581.07C78.4666 586.795 80.8252 592.193 83.398 597.414C87.401 605.538 92.2021 613.643 99.6128 618.849C103.948 621.894 108.965 623.793 113.923 625.66L152.954 640.364C158.695 642.527 164.438 644.69 170.237 646.696C199.369 656.765 229.741 662.804 260.509 664.642C269.881 665.2 279.395 665.356 288.538 663.222C290.708 662.716 293.022 661.961 294.278 660.121C295.022 658.825 295.461 657.376 295.561 655.885L297.963 639.071C298.301 636.704 298.626 634.212 297.759 631.983C296.658 629.157 293.901 627.38 291.271 625.869C265.611 611.132 235.65 603.001 214.052 582.773C208.967 578.012 204.712 570.464 198.534 567.229C191.529 563.561 183.279 561.467 176.038 558.087C160.208 550.698 144.644 542.207 127.487 538.263Z" fill="#2F2E41"/>
<path opacity="0.1" d="M166.454 560.93C180.25 565.253 238.495 595.202 248.479 605.659C247.141 606.141 201.737 580.696 200.375 580.287C187.991 576.571 175.538 572.829 163.777 567.39C161.411 566.296 148.407 561.153 148.996 558.168C149.661 554.799 164.005 560.163 166.454 560.93Z" fill="#4B596A"/>
<path d="M338.565 673.362C339.348 673.42 340.125 673.191 340.752 672.719C341.027 672.366 341.229 671.961 341.346 671.529C341.463 671.097 341.494 670.646 341.435 670.202C341.414 662.567 341.392 654.931 341.371 647.296C334.784 644.158 327.416 643.152 320.184 642.185L286.44 637.675C287.216 637.778 281.164 652.208 282.092 654.135C283.727 657.53 296.225 660.539 299.752 662.143C312.014 667.716 324.755 673.843 338.565 673.362Z" fill="#FFBD9E"/>
<path d="M232.694 647.217C226.323 648.231 219.212 649.128 215.086 654.088C209.853 660.377 212.081 669.753 214.577 677.544C214.948 679.12 215.692 680.584 216.747 681.812C218.451 683.493 221.061 683.739 223.449 683.89C229.259 684.258 235.443 684.546 240.519 681.696C242.924 680.347 244.91 678.374 247.151 676.767C250.894 674.276 255.009 672.395 259.343 671.193C267.309 668.688 275.508 666.998 283.816 666.15C287.072 665.818 290.394 665.604 293.457 664.45C296.52 663.296 299.357 661.008 300.247 657.858C301.423 653.696 299.003 649.452 296.683 645.801C293.792 641.253 290.73 636.465 286.42 633.117C280.133 628.233 277.023 631.982 270.689 635.108C258.702 641.024 245.894 645.106 232.694 647.217V647.217Z" fill="#FFBD9E"/>
<path d="M216.044 652.955L175.59 640.999C170.67 639.544 165.666 638.077 160.535 638.081C155.405 638.085 150.037 639.767 146.71 643.672C143.573 647.354 142.675 652.386 141.893 657.159L140.22 667.37C139.37 672.559 138.518 677.847 139.283 683.05C140.049 688.252 142.704 693.449 147.32 695.967C152.918 699.022 159.779 697.53 166.027 696.252C178.647 693.673 191.483 692.296 204.363 692.141C209.206 692.083 214.284 692.144 218.563 689.876C223.649 687.181 226.692 681.481 227.215 675.749C228.011 667.026 225.104 655.633 216.044 652.955Z" fill="#2F2E41"/>
<path d="M354.467 642.536C359.711 641.617 364.339 638.636 369.364 636.877C376.438 634.4 384.103 634.4 391.597 634.428C394.348 634.438 397.277 634.5 399.567 636.024C402.868 638.222 403.714 642.62 404.276 646.545C405.405 654.441 406.533 662.336 407.662 670.231C408.299 674.686 408.932 679.26 407.939 683.65C406.945 688.039 403.954 692.27 399.598 693.403C394.308 694.778 389.122 691.399 384.127 689.179C371.644 683.631 357.132 685.049 344.115 680.902C341.7 680.132 339.112 678.955 338.127 676.62C337.682 675.304 337.523 673.909 337.661 672.527C337.884 664.913 336.278 654.517 338.57 647.241C340.632 640.698 348.613 642.536 354.467 642.536Z" fill="#2F2E41"/>
<path d="M440.076 528.73C448.159 526.703 456.539 526.13 464.823 527.039C471.439 527.768 478.255 529.609 483.085 534.188C488.964 539.761 490.853 548.381 491.011 556.48C491.269 572.613 485.919 588.334 475.873 600.96C473.42 604.153 470.503 606.961 467.218 609.291C463.675 611.508 459.899 613.327 455.958 614.718L368.551 649.194C345.556 658.264 322.479 667.36 298.494 673.339C297.839 673.656 297.126 673.838 296.399 673.875C295.672 673.912 294.944 673.803 294.26 673.555C293.575 673.307 292.947 672.924 292.413 672.43C291.878 671.935 291.448 671.339 291.147 670.676C283.489 659.736 277.064 647.984 271.99 635.632C271.75 635.338 271.584 634.991 271.506 634.62C271.428 634.249 271.441 633.864 271.544 633.499C271.646 633.134 271.835 632.798 272.094 632.522C272.354 632.245 272.676 632.035 273.034 631.909L334.858 596.386C339.286 593.842 343.764 591.261 347.441 587.716C350.113 585.127 352.301 582.081 353.902 578.722C355.183 576.045 355.303 569.729 356.94 567.75C358.542 565.813 364.025 565.659 366.557 564.897C370.128 563.803 373.625 562.481 377.027 560.939C390.857 554.752 403.172 545.763 416.429 538.518C423.865 534.267 431.811 530.978 440.076 528.73Z" fill="#2F2E41"/>
<path opacity="0.1" d="M405.027 555.258C394.406 563.235 380.652 570.569 370.125 578.756C366.533 581.551 306.64 615.223 305.793 619.695C315.614 621.35 378.176 577.583 387.127 573.216C396.078 568.849 404.013 562.69 411.876 556.577C413.88 555.019 422.372 550.335 416.619 548.595C413.379 547.614 407.419 553.663 405.027 555.258Z" fill="#4B596A"/>
<path d="M331.943 295.297H238.705C234.917 295.297 231.284 296.801 228.606 299.48C225.927 302.158 224.422 305.791 224.422 309.579V314.81H223.409V326.506H224.422V334.694H223.409V341.712H224.422V428.018C224.422 431.806 225.927 435.439 228.606 438.117C231.284 440.796 234.917 442.301 238.705 442.301H331.943C335.731 442.301 339.364 440.796 342.042 438.117C344.721 435.439 346.226 431.806 346.226 428.018V309.579C346.226 305.791 344.721 302.158 342.042 299.48C339.364 296.801 335.731 295.297 331.943 295.297V295.297Z" fill="#FFA500"/>
<path d="M346.761 184.974L299.471 160.203L234.166 170.337L220.655 230.012L254.289 228.718L263.685 206.794V228.357L279.204 227.76L288.212 192.856L293.841 230.012L349.013 228.886L346.761 184.974Z" fill="#2F2E41"/>
<path d="M186.133 521C188.469 524.488 191.207 527.9 194.96 529.782C199.65 532.133 205.438 531.714 210.134 529.375C214.79 526.879 218.601 523.058 221.085 518.396C226.224 509.32 227.289 498.461 226.648 488.051C226.006 477.641 223.783 467.39 222.8 457.007C222.085 449.459 222.026 441.866 221.969 434.284C221.957 432.691 221.982 430.975 222.924 429.689C224.062 428.135 226.146 427.706 227.993 427.157C238.366 424.076 245.251 414.353 250.187 404.724C253.483 398.294 256.349 391.266 255.713 384.068C255.078 376.871 249.904 369.62 242.717 368.886C236.791 368.281 231.319 372.045 227.044 376.193C216.261 386.724 209.331 400.574 207.367 415.518C206.429 422.836 206.698 430.353 204.707 437.458C200.457 452.627 187.16 461.927 180.533 475.577C173.231 490.617 177.261 507.693 186.133 521Z" fill="#FFBD9E"/>
<path d="M381.813 463.048C380.3 466.566 378.099 469.745 375.338 472.398C372.576 475.051 369.312 477.124 365.736 478.495C361.292 480.28 356.389 480.58 351.76 479.351C349.465 478.714 347.347 477.557 345.571 475.968C343.796 474.38 342.41 472.404 341.522 470.194C340.814 467.967 340.426 465.651 340.369 463.315C339.704 453.086 339.961 442.544 343.677 432.99C345.11 429.305 347.042 425.811 348.173 422.022C349.463 417.701 349.669 413.141 349.866 408.636L351.088 380.725C351.29 378.698 351.15 376.652 350.673 374.673C349.455 370.634 345.68 368.01 342.217 365.601C333.853 359.785 325.588 352.997 321.535 343.651C320.295 340.791 319.476 337.611 320.106 334.558C321.249 329.016 326.842 325.428 332.37 324.219C335.988 323.428 339.727 323.377 343.365 324.07C347.002 324.763 350.461 326.185 353.534 328.251C356.607 330.317 359.23 332.983 361.245 336.089C363.261 339.196 364.626 342.678 365.259 346.326C365.806 349.476 365.799 352.693 366.119 355.874C366.798 362.621 368.94 369.126 370.28 375.774C373.581 392.149 371.871 409.076 375.135 425.448C377.864 439.137 388.155 448.069 381.813 463.048Z" fill="#FFBD9E"/>
<path d="M286.572 358.088C293.032 358.088 298.269 352.851 298.269 346.391C298.269 339.931 293.032 334.694 286.572 334.694C280.112 334.694 274.875 339.931 274.875 346.391C274.875 352.851 280.112 358.088 286.572 358.088Z" fill="#D0CDE1"/>
<path d="M780.321 358.914C767.927 358.914 755.812 362.589 745.507 369.475C735.202 376.36 727.17 386.147 722.427 397.597C717.684 409.047 716.443 421.647 718.861 433.802C721.279 445.958 727.247 457.123 736.011 465.887C744.775 474.651 755.94 480.619 768.096 483.037C780.251 485.455 792.851 484.214 804.301 479.471C815.751 474.728 825.538 466.696 832.423 456.391C839.309 446.086 842.984 433.971 842.984 421.577C842.984 413.348 841.363 405.2 838.214 397.597C835.065 389.994 830.449 383.086 824.63 377.268C818.812 371.449 811.904 366.833 804.301 363.684C796.698 360.535 788.55 358.914 780.321 358.914V358.914ZM811.29 405.684C811.323 406.361 811.339 407.054 811.339 407.747C811.339 428.888 795.265 453.264 765.839 453.264C757.157 453.283 748.657 450.771 741.38 446.036C742.646 446.187 743.919 446.265 745.193 446.267C752.392 446.279 759.386 443.867 765.047 439.418C761.71 439.355 758.476 438.25 755.798 436.259C753.12 434.267 751.131 431.488 750.111 428.311C751.1 428.51 752.106 428.609 753.115 428.608C754.536 428.607 755.951 428.419 757.323 428.047C753.704 427.315 750.45 425.354 748.113 422.496C745.775 419.639 744.499 416.06 744.5 412.368V412.17C746.721 413.419 749.214 414.104 751.761 414.167C748.372 411.908 745.971 408.441 745.048 404.473C744.125 400.505 744.749 396.335 746.794 392.811C750.801 397.757 755.806 401.802 761.482 404.682C767.158 407.563 773.377 409.215 779.735 409.53C779.455 408.334 779.316 407.11 779.322 405.882C779.319 402.676 780.28 399.542 782.082 396.889C783.884 394.236 786.442 392.187 789.424 391.008C792.407 389.83 795.675 389.576 798.803 390.28C801.932 390.984 804.776 392.614 806.966 394.957C810.547 394.257 813.98 392.945 817.115 391.079C815.923 394.783 813.424 397.927 810.085 399.925C813.252 399.541 816.344 398.69 819.261 397.399C817.117 400.612 814.418 403.418 811.29 405.684V405.684Z" fill="#FFA500"/>
<path d="M760.172 195.751C766.322 195.751 771.307 190.766 771.307 184.616C771.307 178.467 766.322 173.481 760.172 173.481C754.022 173.481 749.037 178.467 749.037 184.616C749.037 190.766 754.022 195.751 760.172 195.751Z" fill="#FFA500"/>
<path d="M774.091 156.779H746.254C742.565 156.79 739.032 158.26 736.424 160.868C733.816 163.476 732.346 167.01 732.335 170.698V198.535C732.346 202.223 733.816 205.757 736.424 208.365C739.032 210.973 742.565 212.443 746.254 212.454H774.091C777.779 212.443 781.313 210.973 783.921 208.365C786.529 205.757 787.999 202.223 788.01 198.535V170.698C787.999 167.01 786.529 163.476 783.921 160.868C781.313 158.26 777.779 156.79 774.091 156.779H774.091ZM760.172 201.319C756.869 201.319 753.64 200.339 750.893 198.504C748.146 196.669 746.005 194.06 744.741 191.008C743.477 187.956 743.146 184.598 743.791 181.358C744.435 178.118 746.026 175.142 748.362 172.806C750.698 170.47 753.674 168.879 756.914 168.235C760.154 167.59 763.512 167.921 766.564 169.185C769.616 170.45 772.224 172.59 774.06 175.337C775.895 178.084 776.875 181.313 776.875 184.616C776.873 189.046 775.113 193.293 771.981 196.425C768.849 199.557 764.602 201.318 760.172 201.319V201.319ZM778.266 170.698C777.441 170.698 776.633 170.453 775.947 169.994C775.26 169.535 774.725 168.883 774.409 168.12C774.093 167.357 774.01 166.517 774.171 165.707C774.332 164.897 774.73 164.153 775.314 163.569C775.898 162.986 776.642 162.588 777.452 162.427C778.262 162.266 779.101 162.348 779.864 162.664C780.627 162.98 781.28 163.516 781.738 164.202C782.197 164.889 782.442 165.696 782.442 166.522C782.443 167.071 782.336 167.614 782.127 168.122C781.918 168.629 781.61 169.09 781.222 169.478C780.834 169.866 780.373 170.173 779.866 170.383C779.359 170.592 778.815 170.699 778.266 170.698V170.698Z" fill="#FFA500"/>
<path d="M759.457 119.141C746.392 119.141 733.619 123.015 722.756 130.274C711.892 137.533 703.425 147.85 698.425 159.921C693.425 171.992 692.117 185.274 694.666 198.089C697.215 210.903 703.506 222.674 712.745 231.913C721.984 241.152 733.755 247.443 746.569 249.992C759.384 252.541 772.666 251.233 784.737 246.233C796.808 241.233 807.126 232.766 814.384 221.902C821.643 211.039 825.518 198.267 825.518 185.201C825.518 176.526 823.809 167.936 820.489 159.921C817.169 151.906 812.303 144.624 806.169 138.489C800.035 132.355 792.752 127.489 784.737 124.169C776.723 120.849 768.132 119.141 759.457 119.141V119.141ZM793.576 198.535C793.561 203.698 791.504 208.646 787.852 212.297C784.201 215.948 779.254 218.006 774.09 218.021H746.253C741.09 218.006 736.142 215.948 732.491 212.297C728.84 208.646 726.782 203.698 726.767 198.535V170.698C726.782 165.534 728.84 160.587 732.491 156.936C736.142 153.285 741.09 151.227 746.253 151.212H774.091C779.254 151.227 784.201 153.285 787.853 156.936C791.504 160.587 793.561 165.534 793.576 170.698L793.576 198.535Z" fill="#FFA500"/>
<path d="M491.492 0C478.636 0 466.069 3.81218 455.38 10.9545C444.691 18.0968 436.36 28.2484 431.44 40.1256C426.52 52.0028 425.233 65.0721 427.741 77.6809C430.249 90.2896 436.44 101.872 445.53 110.962C454.621 120.052 466.203 126.243 478.811 128.751C491.42 131.259 504.489 129.972 516.367 125.052C528.244 120.132 538.395 111.801 545.538 101.112C552.68 90.4229 556.492 77.8558 556.492 65C556.492 56.4641 554.811 48.0117 551.544 40.1256C548.278 32.2394 543.49 25.0739 537.454 19.0381C531.418 13.0022 524.253 8.21439 516.367 4.94783C508.481 1.68127 500.028 0 491.492 0V0ZM511.987 39.3308H503.667C497.986 39.3308 496.902 42.018 496.902 45.9779V54.3929H510.432L508.664 67.5928H496.902V103.421H481.816V67.5928H470.997V54.3929H481.816V44.6344C481.816 32.943 489.925 26.5788 500.367 26.5788C505.364 26.5788 510.738 26.9559 511.988 27.1209L511.987 39.3308Z" fill="#FFA500"/>
</g>
<defs>
<clipPath id="clip0">
<rect width="842.984" height="770.564" fill="white"/>
</clipPath>
</defs>
</svg>
