<svg width="2000" height="2000" viewBox="0 0 2000 2000" fill="none" xmlns="http://www.w3.org/2000/svg">
<path fill-rule="evenodd" clip-rule="evenodd" d="M1000 0C447.715 0 0 447.715 0 1000C0 1552.28 447.715 2000 1000 2000C1552.28 2000 2000 1552.28 2000 1000C2000 447.715 1552.28 0 1000 0ZM771.496 614.269C775.054 615.89 785.507 620.651 791.018 631.489C792.401 634.199 795.793 641.85 792.972 659.068C790.491 673.491 785.076 687.251 777.062 699.497C747.418 744.7 704.335 775.173 700.427 777.883C679.94 791.855 658.086 803.708 635.203 813.261C617.17 821.114 598.705 827.934 579.897 833.687C569.555 836.95 560.651 839.347 553.903 841.061C554.29 843.605 557.646 864.142 572.154 869.673C578.053 871.811 584.156 871.019 591.419 869.968C598.845 868.711 606.064 866.447 612.878 863.239C620.794 859.683 628.408 855.491 635.645 850.703C648.264 842.969 660.314 834.344 671.705 824.893C674.944 822.177 675.487 821.604 678.568 818.352L678.569 818.351L678.57 818.35L678.576 818.343L678.576 818.343C681.037 815.746 685.113 811.444 693.458 802.992C696.025 800.423 698.1 797.405 699.579 794.088C700.356 792.42 700.896 790.652 701.183 788.834C701.283 788.125 701.308 787.561 701.329 787.104C701.364 786.303 701.385 785.831 701.773 785.479C703.159 784.284 705.992 785.472 708.175 786.387C708.518 786.531 708.844 786.668 709.147 786.788C717.365 790.136 726.471 788.42 736.065 786.611L736.597 786.511C738.156 786.204 739.606 785.866 740.919 785.56C744.809 784.654 747.504 784.027 748.303 785.294C748.893 786.235 748.303 788.023 747.418 789.129C746.589 790.092 745.434 790.716 744.174 790.88C740.468 791.599 707.027 811.38 680.535 856.27C674.12 867.147 668.958 879.774 658.635 905.029L658.634 905.032C651.633 922.093 647.806 932.945 644.785 941.51C643.145 946.161 641.743 950.138 640.199 954.069C635.701 965.757 614.703 1019.51 561.959 1050.14C551.617 1056.11 512.553 1078.05 462.409 1070.41C448.14 1068.24 414.182 1063.06 388.668 1034.17C377.222 1021.12 369.213 1005.43 365.366 988.507C355.116 942.806 380.409 906.248 387.027 896.717C392.687 888.532 405.352 870.724 428.875 859.294C435.131 856.279 441.679 853.913 448.417 852.233C443.765 861.991 439.72 872.026 436.305 882.282C434.891 886.342 433.903 890.537 433.355 894.8C432.535 900.042 432.616 905.385 433.595 910.599C435.223 917.975 438.889 924.746 444.176 930.141C439.549 931.726 408.781 942.732 398.088 973.058L398.018 973.261C396.093 978.818 390.128 996.037 397.738 1014.33C401.454 1022.81 407.288 1030.19 414.68 1035.76C427.492 1045.42 440.932 1046.5 449.043 1047.06C464.75 1048.11 476.53 1044.11 486.135 1040.73C507.133 1033.34 521.144 1022.7 531.099 1014.74C540.206 1007.46 553.184 996.047 578.385 965.702C588.949 952.985 594.199 945.923 601.899 935.565L601.903 935.56L601.912 935.548C606.867 928.882 612.838 920.85 621.893 909.069C632.281 895.544 642.052 883.23 649.948 873.278L649.951 873.275L649.954 873.272L649.955 873.27C661.687 858.485 669.28 848.916 668.608 848.343C668.277 848.062 665.5 850.841 660.588 855.757C648.775 867.578 624.618 891.752 592.47 915.411C583.649 922.424 573.666 927.834 562.973 931.394L562.969 931.395C554.079 934.199 528.256 942.342 503.409 928.555C499.178 926.151 495.211 923.308 491.574 920.075C485.454 914.435 480.543 907.611 477.139 900.017C474.882 893.473 473.15 886.76 471.958 879.941C471.065 874.501 470.449 869.018 470.115 863.515C469.566 857.621 469.418 851.695 469.672 845.781C469.801 843.513 469.986 841.577 470.115 840.25C468.198 840.213 465.395 840.103 462.022 839.715C438.646 837.024 422.423 825.391 412.836 818.349C391.479 802.277 374.638 780.959 363.946 756.462C353.774 733.497 350.033 708.2 353.125 683.274C356.4 659.576 365.72 637.12 380.188 618.068C388.015 607.484 397.124 597.911 407.306 589.567C458.021 547.701 520.074 547 530.564 547C543.727 547 589.022 547.129 620.989 570.099C639.295 583.207 660.256 608.998 662.911 612.501C665.566 616.003 667.999 619.69 667.999 619.69C669.474 621.866 670.709 623.765 671.686 625.35C673.677 624.262 676.461 622.787 680.148 621.257C686.369 618.776 692.789 616.828 699.339 615.432C704.685 614.178 711.672 612.74 720.005 611.56C729.905 609.839 739.976 609.326 749.999 610.03C758.756 610.657 764.508 611.118 771.458 614.252L771.496 614.269ZM487.536 785.921C493.993 773.985 501.21 762.476 509.142 751.466L509.159 751.443C529.894 723.299 552.419 692.724 588.027 668.267C601.429 659.086 624.031 645.739 627.442 643.748C637.987 637.536 646.872 632.577 653.122 629.148C643.62 607.994 628.08 590.119 608.453 577.768C596.61 570.527 583.558 565.481 569.924 562.873C528.186 554.098 494.763 568.625 485.545 572.809C473.608 578.326 462.451 585.392 452.362 593.826C437.325 605.881 424.349 620.301 413.943 636.522C406.495 648.118 390.345 674.093 387.672 710.963C386.015 728.081 387.898 745.357 393.203 761.716C398.15 776.675 406.084 790.473 416.523 802.273C421.658 808.079 427.527 813.192 433.982 817.482C440.573 821.813 447.766 825.148 455.33 827.382C460.741 828.916 466.306 829.843 471.922 830.148C472.488 826.12 473.269 822.126 474.263 818.183C477.228 806.885 481.692 796.035 487.536 785.921ZM773.209 673.171C775.523 669.48 777.153 665.402 778.021 661.133V661.041C778.851 656.948 780.528 648.652 775.827 640.707C770.587 631.77 761.037 629.473 758.554 628.876L758.535 628.871C753.916 627.894 749.143 627.894 744.524 628.871C731.594 630.866 718.901 634.171 706.64 638.734C697.192 642.477 688.046 646.939 679.282 652.081C680.625 656.813 681.617 661.638 682.25 666.516C683.605 677.153 683.306 687.937 681.365 698.483C679.82 706.831 677.347 714.981 673.991 722.78C671.248 729.973 667.404 736.696 662.598 742.709C659.039 747.038 654.916 750.869 650.338 754.102C643.679 758.668 636.147 761.807 628.216 763.32C628.39 763.041 628.578 762.742 628.779 762.423C629.893 760.653 631.39 758.273 633.046 755.429C635.511 751.612 637.633 747.583 639.388 743.391C641.119 738.099 641.642 732.486 640.918 726.965C640.394 722.699 639.147 718.553 637.231 714.706C638.964 712.143 641.618 708.253 644.9 703.534C648.002 699.079 649.981 696.314 651.354 694.395L651.356 694.391C652.976 692.128 653.753 691.041 654.541 689.744C657.749 684.435 660.828 676.047 659.851 662.645C658.007 663.935 655.463 665.76 652.477 667.991C641.009 676.539 630.069 685.773 619.717 695.644C606.905 707.756 598.646 715.609 589.281 728.034C581.753 737.997 575.208 748.665 569.739 759.891C560.165 780.035 554.449 801.796 552.889 824.045C555.138 823.916 558.844 823.64 563.397 822.939C569.65 821.98 575.815 820.519 581.833 818.57C605.547 811.019 628.616 801.574 650.818 790.327C668.323 781.248 685.024 770.696 700.74 758.785C713.323 749.575 725.047 739.246 735.767 727.924C747.754 715.09 756.039 701.446 772.1 674.998L772.1 674.997L773.209 673.171ZM1609.67 960.512C1609.25 959.775 1608.65 959.152 1607.93 958.697C1607.21 958.243 1606.39 957.97 1605.54 957.903C1604.45 957.941 1603.4 958.36 1602.58 959.087C1600.43 960.914 1598.95 963.409 1598.38 966.174C1597.11 971.875 1593.26 977.558 1586.16 988.045L1586.1 988.139C1581.86 994.341 1576.68 999.841 1570.74 1004.44C1563.63 1010.2 1558.32 1014.49 1550.38 1014.84C1546.04 1014.98 1541.73 1014.01 1537.88 1012.01C1533.77 1009.94 1528.25 1005.87 1521.81 992.506C1517.09 982.783 1513.88 972.392 1512.3 961.697C1507.92 928.297 1509.75 889.272 1510.45 877.263C1512.73 877.022 1516.15 876.615 1520.28 875.967C1548.83 871.49 1555.12 863.94 1556.45 862.201C1557.29 861.109 1560.15 857.112 1559.12 853.929C1558.88 852.982 1558.29 852.162 1557.47 851.635C1556.6 851.244 1555.63 851.178 1554.71 851.45C1553.77 851.667 1552.88 852.112 1552.14 852.745C1549.24 855.169 1539.73 858.185 1538.91 858.426C1535.01 859.647 1530.29 859.888 1520.83 860.276C1517.13 860.461 1514.06 860.517 1512.01 860.554C1512.16 843.9 1512.77 830.392 1513.3 821.159C1514.47 800.804 1516.36 783.244 1520.07 748.826C1521.37 736.817 1522.48 726.973 1523.22 720.515C1523.22 720.515 1527.24 689.466 1527.75 671.794C1527.75 670.881 1527.79 668.997 1527.85 666.468V666.465V666.458C1527.93 662.786 1528.03 657.76 1528.09 652.384V646.962C1527.88 644.242 1527 632.473 1518.63 626.311C1515.73 624.314 1512.39 623.044 1508.9 622.611C1496.19 620.168 1485.32 624.702 1480.79 626.663C1471.45 630.721 1465.93 635.835 1455.01 645.947L1454.76 646.185C1448.85 651.635 1443.37 657.531 1438.36 663.819C1435.73 667.131 1422.24 684.173 1425.98 689.577C1426.8 690.724 1427.95 691.59 1429.28 692.056C1430.94 692.47 1432.7 692.273 1434.23 691.501C1434.99 691.143 1435.69 690.676 1436.31 690.113C1438.58 688.374 1440.31 686.017 1441.28 683.322C1442.21 681.037 1445.48 677.276 1451.51 670.325L1451.53 670.306C1452.58 669.1 1453.71 667.798 1454.92 666.391C1462.12 657.972 1468.3 651.588 1476.96 645.722C1484.36 640.726 1488.4 639.801 1491.56 641.041C1493.96 642.23 1495.86 644.229 1496.93 646.684C1498.94 650.385 1499.98 654.66 1499.44 665.429C1499.23 670.032 1498.45 675.947 1496.93 687.387V687.389L1496.7 689.114C1496.57 690.07 1496.44 691.047 1496.3 692.072C1495.99 694.34 1495.65 696.849 1495.21 699.92C1494.24 706.6 1493.36 712.281 1492.65 716.574C1491.85 717.622 1490.83 718.961 1489.6 720.555L1489.58 720.59L1489.54 720.639C1486.69 724.357 1482.8 729.437 1478.29 735.393C1456.6 764.097 1421.93 812.207 1404.14 836.893L1404.13 836.913L1402.91 838.608C1396.99 846.837 1390.59 854.708 1383.74 862.182C1381.76 864.319 1380.17 865.987 1379.36 866.831L1379.33 866.864H1374.86H1360.89C1359.55 866.864 1357.61 866.864 1355.22 866.66C1356.48 864.921 1358.28 862.386 1360.39 859.258C1371.18 843.463 1380.47 826.693 1388.14 809.168C1394.36 795.418 1399.15 781.063 1402.43 766.331C1406.02 749.678 1410.55 728.38 1405.37 702.252C1402.48 687.708 1398.08 665.669 1378.74 647.517C1358.13 628.217 1333.65 625.701 1326.38 625.072C1300.3 622.777 1280.91 632.473 1270.62 637.821C1232.87 657.38 1216.68 691.686 1210.39 705.027C1197.44 732.784 1195.31 757.801 1193.74 777.323C1192.53 791.866 1192.65 806.489 1194.09 821.011C1195.66 836.441 1198.76 851.677 1203.34 866.493C1205.06 872.045 1206.71 876.541 1208 879.927C1204.19 880.556 1198.75 881.5 1192.3 882.758C1174.9 886.145 1155.56 889.919 1135.97 896.544C1116.65 903.076 1100.26 908.627 1083.03 922.561C1073.3 930.425 1062.06 939.51 1055.16 955.627C1054.22 957.817 1046.58 976.414 1049.66 996.667C1043.3 994.477 1037.52 992.414 1032.47 990.589C1014.12 983.917 1004.57 980.142 993.868 975.908L993.866 975.907L993.863 975.906L993.862 975.906C983.78 971.918 972.669 967.523 952.203 959.92L952.056 959.866C946.041 957.634 929.256 951.406 907.19 942.319C904.442 941.187 901.934 940.143 899.726 939.224L899.674 939.202L899.659 939.196L899.652 939.193C897.342 938.231 895.365 937.407 893.79 936.766C899.954 929.122 904.729 922.682 907.912 918.258C916.257 906.661 922.446 896.754 933.624 878.861L933.624 878.859L934.842 876.911C938.395 871.21 941.264 866.528 943.115 863.492C984.018 845.165 1023.78 824.399 1062.2 801.304C1089.72 784.326 1115.18 764.222 1138.08 741.393C1146.78 732.876 1154.18 723.13 1160.05 712.465C1166.42 700.786 1177.6 680.223 1172.21 656.459L1172.2 656.434C1170.94 650.86 1167.34 634.976 1153.55 626.327C1144.58 620.775 1135.16 620.553 1127.64 620.423C1124.37 620.423 1113.71 620.534 1097.29 626.327C1072.15 635.156 1055.16 650.666 1044.23 660.771C1037.77 666.797 1031.69 673.219 1026.03 680.001C1018.31 689.033 1009.78 700.453 996.937 722.977C981.513 750.109 967.964 778.264 956.385 807.246C954.535 812.132 948.797 827.031 939.21 846.113C936.748 851.018 934.638 855.015 933.232 857.607C926.81 859.368 920.196 860.325 913.539 860.457C910.145 860.505 906.752 860.345 903.378 859.976C906.617 853.405 911.521 843.318 917.388 831.066C925.652 813.821 929.931 804.451 933.988 795.566L933.99 795.563L933.993 795.555C937.568 787.726 940.972 780.272 946.78 768.138C953.109 754.886 965.695 728.919 982.76 699.157C987.636 690.511 993.058 682.184 998.991 674.227C1008.79 661.124 1017.95 652.588 1024.04 646.911C1025.76 645.315 1027.23 643.945 1028.4 642.762C1035.45 637.001 1043.14 632.082 1051.33 628.104C1054.71 626.657 1058.17 625.421 1061.7 624.402C1063.55 623.866 1065.08 623.532 1065.62 623.421L1065.98 623.34C1073.29 621.71 1076.98 620.888 1079.8 621.052C1080.9 621.136 1081.99 620.864 1082.93 620.275C1083.15 620.127 1084.54 619.201 1084.46 618.035C1084.39 616.88 1082.95 616.088 1082.41 615.786L1082.39 615.777C1079.61 614.329 1075.77 615.12 1069.7 616.373C1068.78 616.561 1067.82 616.759 1066.81 616.962C1064.03 617.527 1062.79 617.726 1061.93 617.862C1061.09 617.999 1060.62 618.073 1059.4 618.387C1055.27 619.492 1051.24 620.953 1047.35 622.755C1029.01 631.361 1011.71 647.371 1011.71 647.371C1006.44 652.209 1001.43 657.318 996.696 662.677C996.696 662.677 989.996 670.266 983.833 678.854C968.286 700.527 953.905 730.529 953.905 730.529C953.905 730.529 926.587 787.479 897.548 846.853C894.909 852.271 892.715 856.715 891.295 859.593L891.051 860.087C876.151 860.646 861.277 858.431 847.187 853.553C830.688 848.23 815.756 838.924 803.711 826.457C797.64 820.035 789.829 811.651 785.906 798.195C783.725 790.064 782.924 781.624 783.537 773.227C783.6 767.595 784.536 762.007 786.313 756.662C788.003 751.684 790.685 747.1 794.197 743.188C797.899 739.172 807.153 731.269 812.706 729.603C813.404 729.452 814.064 729.163 814.649 728.753C815.234 728.343 815.731 727.82 816.111 727.216C816.305 726.785 816.406 726.318 816.406 725.846C816.406 725.374 816.305 724.907 816.111 724.477C815.875 723.996 815.529 723.578 815.102 723.257C814.674 722.935 814.177 722.719 813.65 722.626C812.699 722.747 811.759 722.939 810.836 723.199C808.195 723.932 805.698 725.109 803.452 726.679C801.277 727.903 799.17 729.244 797.14 730.695C793.795 733.101 790.662 735.788 787.775 738.728C781.152 745.013 775.534 752.279 771.118 760.271C765.203 772.128 762.643 785.377 763.714 798.584C764.14 804.71 765.806 825.883 782 843.466C788.143 850.055 795.47 855.43 803.6 859.309C808.208 861.697 820.146 867.194 873.524 872.265C878.04 872.691 881.742 873.005 884.166 873.209C875.529 888.176 866.275 903.26 856.404 918.462C854.812 920.905 853.22 923.348 851.61 925.754C842.123 921.694 832.325 918.402 822.312 915.908C814.498 913.99 806.582 912.513 798.602 911.484C786.976 909.652 775.196 908.982 763.437 909.485L763.411 909.487C752.879 910.097 736.826 911.029 719.183 919.85C710.355 924.088 700.398 929.086 693.013 940.505C687.282 948.924 684.514 959.01 685.147 969.174C686.442 984.925 696.548 995.086 701.212 999.732C720.979 1019.57 748.149 1020.5 758.217 1020.83C786.727 1021.81 807.941 1010.51 818.687 1004.78L818.721 1004.77C834.802 996.198 847.183 985.336 856.991 976.73L856.996 976.726C863.618 970.895 869.926 964.717 875.893 958.218C880.187 953.535 883.759 949.297 886.517 945.854C919.748 963.172 949.326 978.444 974.443 991.413L974.477 991.43C1000.03 1004.62 1020.96 1015.43 1036.43 1023.59C1052.89 1032.31 1070.27 1039.14 1088.26 1043.95C1099.1 1046.84 1110.47 1049.81 1126.03 1050.06C1142.2 1050.19 1158.27 1047.42 1173.45 1041.86L1173.77 1041.74C1175.04 1041.27 1176.6 1040.7 1178.39 1040C1178.84 1039.88 1179.29 1039.76 1179.73 1039.64C1185.69 1038.01 1204.67 1032.49 1236.37 1014.64C1262.2 1000.05 1286.53 982.966 1309.02 963.621C1310.55 963.843 1312.72 964.139 1315.31 964.361C1324.52 965.159 1333.79 964.736 1342.88 963.103C1362.82 958.51 1381.34 949.158 1396.88 935.846L1405.42 927.927C1410.13 923.635 1414.35 918.839 1418.01 913.623C1418.92 912.199 1419.55 910.608 1419.86 908.942C1420.17 907.258 1420.58 904.982 1419.21 903.575C1418.68 903.12 1418.05 902.79 1417.38 902.611C1416.7 902.431 1415.99 902.407 1415.31 902.539C1414.01 902.82 1412.83 903.523 1411.97 904.538C1411.51 904.997 1411.11 905.513 1410.77 906.073C1404.64 914.389 1397.75 922.12 1390.2 929.167C1382.22 936.361 1373.13 942.21 1363.27 946.486C1356.01 949.626 1348.39 951.851 1340.59 953.111C1334.07 954.117 1327.48 954.433 1320.9 954.054C1326.67 949.465 1334.74 942.822 1344.16 934.366C1346.54 932.238 1348.28 930.665 1349.8 929.24C1356.7 922.838 1364.6 914.937 1387.86 891.585C1388.77 890.678 1390.73 888.698 1393.1 885.886C1394.38 884.368 1395.38 883.092 1396.04 882.185L1402.37 882.555C1414.71 883.203 1440.43 884.276 1473.65 882.906L1479.09 882.666C1478.64 891.067 1478.55 897.469 1478.53 901.966V911.569V922.209C1478.1 938.225 1478.87 954.251 1480.83 970.153C1481.72 976.753 1483.28 983.245 1485.49 989.527C1486.29 991.803 1487.23 994.134 1488.36 996.595C1492.69 1006 1497.61 1016.56 1509.01 1024.02C1524.73 1034.24 1541.9 1031.43 1546 1030.76L1546.02 1030.75C1558.97 1028.44 1567.48 1021.83 1576.36 1014.91C1583.55 1009.26 1589.95 1002.67 1595.39 995.318C1598.57 990.973 1601.42 986.389 1603.9 981.607C1605.95 977.498 1607.69 973.235 1609.08 968.858C1610.28 965.101 1610.87 962.585 1609.67 960.512ZM1222.94 1005.83C1227.49 1003.51 1231.71 1001.19 1235.67 999.001V999.075C1255.42 988.061 1273.57 974.396 1289.61 958.458L1278.51 953.851C1272.45 959.18 1263.87 966.36 1253.04 974.205L1252.86 974.341L1252.85 974.342C1244.74 980.171 1236.39 986.171 1226.5 991.852C1226.06 996.669 1224.86 1001.39 1222.94 1005.83ZM1207.71 1012.58C1207.88 1012.45 1208.04 1012.31 1208.21 1012.17C1211.79 1009.16 1214.61 1005.36 1216.45 1001.06C1217.07 999.523 1217.53 998.007 1217.85 996.519C1214.92 997.993 1211.86 999.434 1208.63 1000.83C1194.53 1006.97 1179.69 1011.24 1164.48 1013.54C1148.58 1015.45 1132.5 1015.45 1116.6 1013.54C1116.13 1013.49 1116.08 1013.48 1115.46 1013.34C1114.65 1013.17 1112.91 1012.8 1108.14 1011.88L1108.01 1011.85C1103.18 1010.93 1101 1010.51 1099.52 1008.57C1099.35 1008.36 1097.7 1006.12 1098.33 1004.66C1099.79 1001.43 1111.64 1003.68 1117.28 1004.75L1117.31 1004.76C1117.82 1004.85 1118.29 1004.94 1118.69 1005.01C1144.35 1009.79 1169.13 1002.57 1185.78 997.705C1196.91 994.393 1207.69 990.018 1217.96 984.647C1217.65 982.622 1217.23 980.687 1216.83 978.854C1215.45 972.206 1212.95 965.842 1209.43 960.031C1208.63 958.903 1207.93 957.601 1207.27 956.361L1207.27 956.358C1206.74 955.383 1206.24 954.447 1205.73 953.664C1205.65 953.539 1205.56 953.414 1205.48 953.289C1204.4 951.651 1203.37 950.091 1203.69 948.371C1203.84 947.605 1204.19 946.891 1204.69 946.298C1205.39 946.457 1206.07 946.68 1206.73 946.964C1209.41 948.246 1211.64 950.303 1213.13 952.869C1215.1 955.696 1216.83 958.672 1218.33 961.771C1220.16 965.243 1221.76 968.829 1223.13 972.506C1224.16 975.085 1224.97 977.742 1225.54 980.447C1227.1 979.531 1228.65 978.592 1230.19 977.628C1241.31 970.411 1251.83 962.311 1261.65 953.407C1264.09 951.242 1266.07 949.391 1267.44 948.096C1257.83 941.956 1248.92 934.783 1240.87 926.705C1235.42 921.239 1230.4 915.355 1225.86 909.108C1222.73 904.723 1220.31 900.763 1218.46 897.654C1212.8 898.875 1204.64 900.67 1194.83 902.891C1166.5 909.293 1152.33 912.513 1137.15 916.972C1108.79 925.355 1094.3 929.777 1081.64 940.768C1074.26 947.189 1062.42 957.792 1060.97 974.316C1060.3 983.103 1062.45 991.875 1067.12 999.352C1068.07 1000.83 1069.11 1002.19 1070.21 1003.46C1085.28 1008.22 1102.18 1013.05 1119.68 1017C1134.69 1019.94 1149.92 1021.59 1165.21 1021.94C1171.11 1022.09 1177.01 1021.74 1182.84 1020.9C1191.66 1018.85 1199.63 1016.17 1206.89 1013.22C1207.16 1013.02 1207.44 1012.8 1207.71 1012.58ZM1208.3 778.377C1209.05 765.613 1210.77 752.925 1213.46 740.426L1213.49 740.308C1216.07 729.086 1220.81 708.469 1235.43 687.153L1235.5 687.053C1243.16 675.919 1258.27 653.962 1286.92 643.446C1295.1 640.375 1311.76 634.527 1332.41 639.135C1337.01 640.152 1358.42 645.371 1373.54 664.467C1379.08 671.728 1383.37 679.856 1386.25 688.522C1389.12 696.615 1391.03 705.019 1391.93 713.558C1393.62 726.206 1393.66 739.019 1392.05 751.676C1390.32 764.333 1387.35 773.104 1383.57 784.114C1378.66 798.135 1372.64 811.747 1365.58 824.822C1359.92 835.908 1353.65 846.675 1346.8 857.075C1344.6 860.414 1342.56 863.321 1340.89 865.692L1340.89 865.699L1340.89 865.7L1340.85 865.754L1340.45 866.327C1340.21 866.668 1339.98 866.997 1339.76 867.314C1339.64 867.488 1339.52 867.659 1339.4 867.826H1335.15C1327.63 867.974 1321.99 868.307 1320.14 868.418C1316.21 868.641 1311.51 868.82 1306.2 869.023C1289.03 869.678 1265.51 870.576 1241.22 873.969C1237.06 874.543 1230.34 875.523 1221.99 877.115L1220.72 873.802C1220.72 873.802 1219.81 871.49 1219.05 869.436C1209.23 843.067 1207.56 811.629 1207.56 811.629C1207.02 800.542 1207.27 789.43 1208.3 778.377ZM1316.75 883.11C1322.03 882.724 1326.51 882.337 1329.44 882.078L1329.24 882.391L1328.93 882.902L1328.45 883.674L1328.22 884.049C1328.04 884.346 1327.84 884.663 1327.63 884.997C1322.27 893.306 1313.57 905.352 1286.37 932.201C1285.76 932.806 1285.04 933.512 1284.22 934.309C1283.61 934.903 1282.95 935.547 1282.24 936.237L1282.22 936.263L1282.16 936.313C1280.55 937.881 1278.7 939.681 1276.69 941.657C1275.42 940.806 1273.56 939.566 1271.38 937.956C1261.25 930.911 1252.04 922.618 1243.98 913.272C1239.23 907.692 1234.96 901.725 1231.21 895.434C1231.6 895.352 1232 895.267 1232.42 895.18L1232.42 895.179C1235.96 894.431 1240.49 893.476 1245.81 892.566C1248.97 891.992 1256.21 890.715 1268.75 888.865C1277.82 887.551 1294.66 885.164 1316.75 883.11ZM1363.23 886.607C1354.53 896.336 1349.69 901.044 1344.71 905.882L1344.71 905.883L1344.71 905.884C1340.64 909.842 1336.48 913.887 1330.04 920.84C1328.69 922.3 1327.4 923.708 1326.13 925.091L1326.13 925.093C1322.2 929.385 1318.49 933.435 1313.79 938.067C1313.35 938.482 1312.87 938.942 1312.35 939.443L1312.33 939.457L1312.33 939.46L1312.32 939.465L1312.32 939.467C1310.65 941.059 1308.57 943.055 1306 945.284C1303.23 947.708 1300.78 949.669 1298.93 951.112L1288.63 946.856C1294.46 940.972 1300.34 934.804 1306.26 928.352C1319.94 913.279 1332.8 897.491 1344.81 881.056L1368.68 880.464C1367.48 881.75 1365.76 883.721 1363.65 886.132L1363.23 886.607ZM1488.64 767.59C1487.62 784.013 1486.38 795.492 1485.15 806.911L1485.15 806.916L1485.15 806.918C1484.15 816.197 1483.16 825.437 1482.29 837.257C1481.83 843.289 1481.24 852.43 1480.86 863.718L1476.29 863.81C1475.35 863.81 1473.97 863.835 1472.27 863.865H1472.27H1472.27H1472.26C1469.29 863.918 1465.33 863.989 1460.97 863.977C1457.77 863.977 1455.15 863.944 1452.63 863.912C1447.86 863.851 1443.45 863.795 1436.14 863.977C1435.66 863.977 1435.12 863.982 1434.52 863.989C1433.92 863.997 1433.26 864.008 1432.54 864.019H1432.54H1432.54C1428.75 864.08 1423.43 864.165 1416.79 863.977L1412.94 863.829L1413.17 863.575C1413.89 862.804 1414.91 861.714 1415.95 860.387C1417.9 858.08 1419.72 855.664 1421.39 853.152C1423.16 850.555 1425.04 848.046 1426.92 845.529L1426.93 845.524C1428.5 843.415 1430.08 841.301 1431.61 839.126C1436.37 832.464 1440.04 827.649 1443.77 822.75C1448.09 817.078 1452.5 811.292 1458.79 802.396C1466.19 791.922 1472.8 782.041 1484.05 764.943C1486.19 761.705 1487.97 759.004 1489.19 757.135L1489.16 757.754L1489.12 758.673C1489.01 760.875 1488.86 763.937 1488.64 767.534V767.59ZM993.238 780.206C989.462 786.818 984.914 794.783 978.429 805.82C967.009 825.254 957.459 840.801 951.37 850.684C970.453 843.046 988.834 833.757 1006.3 822.922C1019.42 814.695 1028.98 807.53 1042.77 797.186L1043 797.01C1061.68 782.981 1075.63 771.154 1086.17 762.196C1094.4 755.256 1102.08 748.722 1112.08 739.357C1130.34 722.237 1137.73 713.168 1140.3 709.948C1146.25 702.289 1151.58 694.162 1156.22 685.646C1162.25 674.56 1163.31 669.914 1163.62 666.027L1163.63 665.993C1163.94 662.082 1164.75 652.089 1158.18 645.354C1153.5 640.597 1147.22 639.635 1141.06 638.746C1136.23 638.088 1131.34 638.162 1126.53 638.968C1119.45 640.217 1112.65 642.724 1106.45 646.372C1097.15 651.446 1088.46 657.562 1080.54 664.602C1067.58 676.348 1055.7 689.239 1045.06 703.118C1036.86 713.557 1025.64 727.938 1011.52 749.759C1003.84 761.631 999.657 768.963 993.241 780.2L993.238 780.204L993.238 780.206ZM858.625 962.289C862.723 958.968 866.554 955.329 870.081 951.406C872.678 948.629 874.72 946.143 876.182 944.364C876.366 944.14 876.541 943.927 876.707 943.726C872.432 941.708 867.99 939.617 863.418 937.766C862.195 937.287 860.982 936.773 859.777 936.264C858.796 935.849 857.82 935.436 856.848 935.045C849.688 944.251 841.628 952.721 832.787 960.327C823.501 968.848 812.973 975.906 801.564 981.26C792.755 985.288 783.4 987.994 773.801 989.293C772.804 989.398 772.019 989.442 771.154 989.491L771.152 989.491C769.883 989.562 768.44 989.644 765.898 989.941C762.62 990.252 759.327 990.388 756.033 990.348C754.71 990.486 753.384 990.108 752.332 989.293C751.91 988.888 751.584 988.393 751.379 987.845C751.174 987.297 751.095 986.711 751.147 986.128C751.184 985.712 751.308 985.309 751.513 984.946C751.717 984.582 751.996 984.266 752.332 984.018C752.974 983.68 753.718 983.588 754.423 983.759C756.577 983.836 758.733 983.793 760.883 983.629C763.714 983.74 779.613 982.593 797.233 974.375C805.973 970.203 814.12 964.887 821.46 958.569C824.131 956.37 825.999 954.426 828.076 952.263C830.072 950.185 832.262 947.905 835.545 945.003C837.804 943.052 839.897 940.916 841.801 938.617C843.458 936.605 844.961 934.47 846.298 932.232C841.116 930.252 834.545 927.956 826.809 925.791C817.955 923.317 808.955 921.401 799.861 920.053C786.971 918.049 773.904 917.429 760.883 918.203C755.197 918.471 749.553 919.32 744.04 920.738C739.45 922.015 734.949 923.592 730.566 925.458C726.156 927.076 721.864 928.999 717.721 931.214C715.315 932.584 701.341 940.709 698.658 955.663C696.585 967.324 702.507 976.8 704.58 980.113C713.66 994.795 729.483 999.187 738.224 1001.61L738.247 1001.62C749.385 1004.53 761.009 1005.09 772.376 1003.27C781.439 1002.04 790.323 999.743 798.843 996.419C820.383 988.135 840.54 976.627 858.625 962.289ZM882.603 934.054L883.204 934.212H883.222L883.227 934.205L883.228 934.203C885.246 931.149 888.594 926.081 892.884 919.905C896.947 914.009 899.67 910.199 901.938 907.026L901.939 907.024C905.074 902.638 907.34 899.467 911.077 893.679C912.04 892.198 916.222 885.684 921.479 876.911C922.466 875.265 923.362 873.734 924.154 872.381L924.166 872.36L924.166 872.359C924.794 871.285 925.357 870.324 925.847 869.507C920.757 870.229 915.26 870.803 909.43 871.155C905.229 871.395 901.194 871.506 897.381 871.506C884.888 894.549 879.243 903.97 876.578 907.782C876.371 908.074 876.11 908.438 875.799 908.87L875.786 908.887L875.785 908.889C874.477 910.706 872.3 913.733 869.619 917.814C868.952 918.832 867.971 920.313 866.546 922.311C864.844 924.643 863.326 926.55 862.123 927.975C866.602 929.517 871.278 930.979 876.152 932.361C877.979 932.829 879.783 933.307 881.566 933.779L882.603 934.054ZM472.795 1158.53C470.091 1153.57 466.373 1149.8 461.641 1147.2C456.909 1144.61 451.388 1143.32 445.079 1143.32C438.094 1143.32 431.897 1144.9 426.489 1148.05C421.081 1151.2 416.856 1155.71 413.814 1161.57C410.772 1167.43 409.251 1174.19 409.251 1181.85C409.251 1189.74 410.772 1196.61 413.814 1202.47C416.969 1208.33 421.306 1212.83 426.827 1215.99C432.348 1219.14 438.77 1220.72 446.093 1220.72C455.106 1220.72 462.486 1218.35 468.232 1213.62C473.978 1208.78 477.752 1202.07 479.555 1193.51H438.995V1175.43H502.877V1196.05C501.3 1204.27 497.92 1211.88 492.737 1218.86C487.554 1225.85 480.851 1231.48 472.626 1235.76C464.514 1239.93 455.388 1242.01 445.248 1242.01C433.869 1242.01 423.56 1239.48 414.321 1234.41C405.195 1229.23 397.984 1222.07 392.689 1212.95C387.506 1203.82 384.915 1193.45 384.915 1181.85C384.915 1170.25 387.506 1159.88 392.689 1150.75C397.984 1141.52 405.195 1134.36 414.321 1129.29C423.56 1124.11 433.812 1121.52 445.079 1121.52C458.374 1121.52 469.922 1124.78 479.724 1131.32C489.526 1137.74 496.286 1146.81 500.004 1158.53H472.795ZM595.465 1123.04V1196.05C595.465 1204.05 597.55 1210.19 601.718 1214.47C605.887 1218.64 611.746 1220.72 619.294 1220.72C626.956 1220.72 632.871 1218.64 637.039 1214.47C641.208 1210.19 643.292 1204.05 643.292 1196.05V1123.04H667.121V1195.88C667.121 1205.9 664.924 1214.41 660.53 1221.4C656.249 1228.27 650.447 1233.45 643.123 1236.94C635.913 1240.44 627.857 1242.18 618.956 1242.18C610.168 1242.18 602.169 1240.44 594.958 1236.94C587.86 1233.45 582.227 1228.27 578.058 1221.4C573.89 1214.41 571.805 1205.9 571.805 1195.88V1123.04H595.465ZM810.526 1123.04V1205.85C810.526 1217.34 807.202 1226.3 800.555 1232.72C793.907 1239.03 785.007 1242.18 773.853 1242.18C762.586 1242.18 753.46 1238.92 746.475 1232.38C739.602 1225.85 736.166 1216.72 736.166 1205H759.826C759.938 1210.07 761.121 1214.02 763.375 1216.83C765.741 1219.65 769.121 1221.06 773.515 1221.06C777.796 1221.06 781.063 1219.71 783.317 1217C785.57 1214.3 786.697 1210.58 786.697 1205.85V1123.04H810.526ZM915.237 1218.52L907.463 1241H882.62L925.039 1122.87H952.586L995.005 1241H969.993L962.219 1218.52H915.237ZM955.797 1199.59L938.728 1150.25L921.659 1199.59H955.797ZM1123.46 1241L1097.44 1195.03H1086.28V1241H1062.62V1123.04H1106.9C1116.03 1123.04 1123.8 1124.67 1130.22 1127.94C1136.64 1131.09 1141.43 1135.43 1144.59 1140.95C1147.85 1146.36 1149.49 1152.44 1149.49 1159.2C1149.49 1166.98 1147.23 1174.02 1142.73 1180.33C1138.22 1186.53 1131.52 1190.81 1122.62 1193.17L1150.84 1241H1123.46ZM1086.28 1177.29H1106.06C1112.48 1177.29 1117.27 1175.77 1120.42 1172.72C1123.57 1169.57 1125.15 1165.23 1125.15 1159.71C1125.15 1154.3 1123.57 1150.13 1120.42 1147.2C1117.27 1144.16 1112.48 1142.64 1106.06 1142.64H1086.28V1177.29ZM1248 1218.52L1240.23 1241H1215.38L1257.8 1122.87H1285.35L1327.77 1241H1302.76L1294.98 1218.52H1248ZM1288.56 1199.59L1271.49 1150.25L1254.42 1199.59H1288.56ZM1475.66 1123.04V1142.14H1444.23V1241H1420.57V1142.14H1389.13V1123.04H1475.66ZM1568.34 1123.04V1241H1544.68V1123.04H1568.34ZM422.144 1349.34H400.064V1292.99H386.624V1360H422.144V1349.34ZM448.638 1360V1292.99H435.198V1360H448.638ZM512.029 1303.84V1292.99H462.877V1303.84H480.733V1360H494.173V1303.84H512.029ZM539.787 1320.64V1303.84H565.227V1292.9H526.347V1360H565.227V1349.06H539.787V1331.3H562.347V1320.64H539.787ZM601.729 1333.89L616.513 1360H632.065L616.033 1332.83C621.089 1331.49 624.897 1329.06 627.457 1325.54C630.017 1321.95 631.297 1317.95 631.297 1313.54C631.297 1309.7 630.369 1306.24 628.513 1303.17C626.721 1300.03 624.001 1297.57 620.353 1295.78C616.705 1293.92 612.289 1292.99 607.105 1292.99H581.953V1360H595.393V1333.89H601.729ZM606.625 1323.81H595.393V1304.13H606.625C610.273 1304.13 612.993 1304.99 614.785 1306.72C616.577 1308.38 617.473 1310.75 617.473 1313.82C617.473 1316.96 616.577 1319.42 614.785 1321.22C612.993 1322.94 610.273 1323.81 606.625 1323.81ZM657.949 1360L662.365 1347.23H689.053L693.469 1360H707.677L683.581 1292.9H667.933L643.837 1360H657.949ZM675.709 1308.45L685.405 1336.48H666.013L675.709 1308.45ZM740.972 1333.89L755.756 1360H771.308L755.276 1332.83C760.332 1331.49 764.14 1329.06 766.7 1325.54C769.26 1321.95 770.54 1317.95 770.54 1313.54C770.54 1309.7 769.612 1306.24 767.756 1303.17C765.964 1300.03 763.244 1297.57 759.596 1295.78C755.948 1293.92 751.532 1292.99 746.348 1292.99H721.196V1360H734.636V1333.89H740.972ZM745.868 1323.81H734.636V1304.13H745.868C749.516 1304.13 752.236 1304.99 754.028 1306.72C755.82 1308.38 756.716 1310.75 756.716 1313.82C756.716 1316.96 755.82 1319.42 754.028 1321.22C752.236 1322.94 749.516 1323.81 745.868 1323.81ZM817.832 1336.67L840.488 1292.99H825.512L811.208 1323.62L796.808 1292.99H781.64L804.392 1336.67V1360H817.832V1336.67ZM890.122 1360L894.538 1347.23H921.226L925.642 1360H939.85L915.754 1292.9H900.106L876.01 1360H890.122ZM907.882 1308.45L917.578 1336.48H898.186L907.882 1308.45ZM963.833 1358.27C967.609 1359.87 971.833 1360.67 976.505 1360.67C981.433 1360.67 985.689 1359.78 989.273 1357.98C992.857 1356.13 995.577 1353.66 997.433 1350.59C999.289 1347.52 1000.22 1344.19 1000.22 1340.61C1000.22 1336.45 999.225 1333.09 997.241 1330.53C995.257 1327.97 992.889 1326.05 990.137 1324.77C987.385 1323.49 983.833 1322.21 979.481 1320.93C976.281 1319.97 973.785 1319.14 971.993 1318.43C970.265 1317.66 968.793 1316.7 967.577 1315.55C966.425 1314.34 965.849 1312.83 965.849 1311.04C965.849 1308.48 966.617 1306.53 968.153 1305.18C969.753 1303.84 971.865 1303.17 974.489 1303.17C977.497 1303.17 979.897 1303.94 981.689 1305.47C983.545 1306.94 984.537 1308.83 984.665 1311.14H999.449C999.001 1305.12 996.601 1300.45 992.249 1297.12C987.961 1293.73 982.361 1292.03 975.449 1292.03C970.841 1292.03 966.745 1292.83 963.161 1294.43C959.577 1295.97 956.793 1298.21 954.809 1301.15C952.825 1304.1 951.833 1307.55 951.833 1311.52C951.833 1315.74 952.793 1319.14 954.713 1321.7C956.697 1324.19 959.033 1326.08 961.721 1327.36C964.473 1328.58 968.025 1329.82 972.377 1331.1C975.577 1332 978.073 1332.83 979.865 1333.6C981.721 1334.3 983.257 1335.3 984.473 1336.58C985.689 1337.86 986.297 1339.49 986.297 1341.47C986.297 1343.9 985.401 1345.89 983.609 1347.42C981.817 1348.9 979.353 1349.63 976.217 1349.63C973.145 1349.63 970.713 1348.83 968.921 1347.23C967.193 1345.63 966.233 1343.46 966.041 1340.7H951.641C951.705 1344.8 952.825 1348.35 955.001 1351.36C957.177 1354.37 960.121 1356.67 963.833 1358.27ZM1026.84 1358.27C1030.62 1359.87 1034.84 1360.67 1039.52 1360.67C1044.45 1360.67 1048.7 1359.78 1052.29 1357.98C1055.87 1356.13 1058.59 1353.66 1060.45 1350.59C1062.3 1347.52 1063.23 1344.19 1063.23 1340.61C1063.23 1336.45 1062.24 1333.09 1060.25 1330.53C1058.27 1327.97 1055.9 1326.05 1053.15 1324.77C1050.4 1323.49 1046.84 1322.21 1042.49 1320.93C1039.29 1319.97 1036.8 1319.14 1035.01 1318.43C1033.28 1317.66 1031.81 1316.7 1030.59 1315.55C1029.44 1314.34 1028.86 1312.83 1028.86 1311.04C1028.86 1308.48 1029.63 1306.53 1031.17 1305.18C1032.77 1303.84 1034.88 1303.17 1037.5 1303.17C1040.51 1303.17 1042.91 1303.94 1044.7 1305.47C1046.56 1306.94 1047.55 1308.83 1047.68 1311.14H1062.46C1062.01 1305.12 1059.61 1300.45 1055.26 1297.12C1050.97 1293.73 1045.37 1292.03 1038.46 1292.03C1033.85 1292.03 1029.76 1292.83 1026.17 1294.43C1022.59 1295.97 1019.8 1298.21 1017.82 1301.15C1015.84 1304.1 1014.85 1307.55 1014.85 1311.52C1014.85 1315.74 1015.8 1319.14 1017.73 1321.7C1019.71 1324.19 1022.05 1326.08 1024.73 1327.36C1027.48 1328.58 1031.04 1329.82 1035.39 1331.1C1038.59 1332 1041.08 1332.83 1042.88 1333.6C1044.73 1334.3 1046.27 1335.3 1047.48 1336.58C1048.7 1337.86 1049.31 1339.49 1049.31 1341.47C1049.31 1343.9 1048.41 1345.89 1046.62 1347.42C1044.83 1348.9 1042.36 1349.63 1039.23 1349.63C1036.16 1349.63 1033.72 1348.83 1031.93 1347.23C1030.21 1345.63 1029.24 1343.46 1029.05 1340.7H1014.65C1014.72 1344.8 1015.84 1348.35 1018.01 1351.36C1020.19 1354.37 1023.13 1356.67 1026.84 1358.27ZM1093.22 1356.26C1098.46 1359.2 1104.22 1360.67 1110.5 1360.67C1116.77 1360.67 1122.53 1359.2 1127.78 1356.26C1133.03 1353.31 1137.15 1349.25 1140.16 1344.06C1143.23 1338.82 1144.77 1332.9 1144.77 1326.3C1144.77 1319.78 1143.23 1313.92 1140.16 1308.74C1137.15 1303.49 1133.03 1299.39 1127.78 1296.45C1122.59 1293.5 1116.83 1292.03 1110.5 1292.03C1104.22 1292.03 1098.46 1293.5 1093.22 1296.45C1087.97 1299.39 1083.81 1303.49 1080.74 1308.74C1077.67 1313.92 1076.13 1319.78 1076.13 1326.3C1076.13 1332.9 1077.67 1338.82 1080.74 1344.06C1083.81 1349.25 1087.97 1353.31 1093.22 1356.26ZM1121.15 1345.98C1118.08 1347.78 1114.53 1348.67 1110.5 1348.67C1106.46 1348.67 1102.88 1347.78 1099.74 1345.98C1096.67 1344.13 1094.27 1341.5 1092.55 1338.11C1090.82 1334.72 1089.95 1330.78 1089.95 1326.3C1089.95 1321.82 1090.82 1317.92 1092.55 1314.59C1094.27 1311.2 1096.67 1308.61 1099.74 1306.82C1102.88 1305.02 1106.46 1304.13 1110.5 1304.13C1114.53 1304.13 1118.08 1305.02 1121.15 1306.82C1124.22 1308.61 1126.62 1311.2 1128.35 1314.59C1130.08 1317.92 1130.94 1321.82 1130.94 1326.3C1130.94 1330.78 1130.08 1334.72 1128.35 1338.11C1126.62 1341.5 1124.22 1344.13 1121.15 1345.98ZM1160.43 1308.74C1157.49 1313.92 1156.02 1319.81 1156.02 1326.4C1156.02 1332.99 1157.49 1338.88 1160.43 1344.06C1163.44 1349.25 1167.5 1353.31 1172.62 1356.26C1177.81 1359.14 1183.6 1360.58 1190 1360.58C1197.55 1360.58 1204.11 1358.69 1209.68 1354.91C1215.31 1351.07 1219.25 1345.73 1221.49 1338.88H1206.03C1204.5 1342.08 1202.32 1344.51 1199.5 1346.18C1196.75 1347.78 1193.55 1348.58 1189.9 1348.58C1186 1348.58 1182.51 1347.68 1179.44 1345.89C1176.43 1344.03 1174.06 1341.44 1172.34 1338.11C1170.67 1334.72 1169.84 1330.82 1169.84 1326.4C1169.84 1321.92 1170.67 1318.02 1172.34 1314.69C1174.06 1311.36 1176.43 1308.8 1179.44 1307.01C1182.51 1305.15 1186 1304.22 1189.9 1304.22C1193.55 1304.22 1196.75 1305.02 1199.5 1306.62C1202.32 1308.22 1204.5 1310.62 1206.03 1313.82H1221.49C1219.25 1307.04 1215.31 1301.73 1209.68 1297.89C1204.05 1294.05 1197.49 1292.13 1190 1292.13C1183.6 1292.13 1177.81 1293.6 1172.62 1296.54C1167.5 1299.42 1163.44 1303.49 1160.43 1308.74ZM1250.92 1360V1292.99H1237.48V1360H1250.92ZM1278.69 1360L1283.11 1347.23H1309.8L1314.21 1360H1328.42L1304.33 1292.9H1288.68L1264.58 1360H1278.69ZM1296.45 1308.45L1306.15 1336.48H1286.76L1296.45 1308.45ZM1387.54 1303.84V1292.99H1338.39V1303.84H1356.24V1360H1369.69V1303.84H1387.54ZM1415.3 1360V1292.99H1401.86V1360H1415.3ZM1446.91 1356.26C1452.16 1359.2 1457.92 1360.67 1464.19 1360.67C1470.47 1360.67 1476.23 1359.2 1481.47 1356.26C1486.72 1353.31 1490.85 1349.25 1493.86 1344.06C1496.93 1338.82 1498.47 1332.9 1498.47 1326.3C1498.47 1319.78 1496.93 1313.92 1493.86 1308.74C1490.85 1303.49 1486.72 1299.39 1481.47 1296.45C1476.29 1293.5 1470.53 1292.03 1464.19 1292.03C1457.92 1292.03 1452.16 1293.5 1446.91 1296.45C1441.67 1299.39 1437.51 1303.49 1434.43 1308.74C1431.36 1313.92 1429.83 1319.78 1429.83 1326.3C1429.83 1332.9 1431.36 1338.82 1434.43 1344.06C1437.51 1349.25 1441.67 1353.31 1446.91 1356.26ZM1474.85 1345.98C1471.78 1347.78 1468.23 1348.67 1464.19 1348.67C1460.16 1348.67 1456.58 1347.78 1453.44 1345.98C1450.37 1344.13 1447.97 1341.5 1446.24 1338.11C1444.51 1334.72 1443.65 1330.78 1443.65 1326.3C1443.65 1321.82 1444.51 1317.92 1446.24 1314.59C1447.97 1311.2 1450.37 1308.61 1453.44 1306.82C1456.58 1305.02 1460.16 1304.13 1464.19 1304.13C1468.23 1304.13 1471.78 1305.02 1474.85 1306.82C1477.92 1308.61 1480.32 1311.2 1482.05 1314.59C1483.78 1317.92 1484.64 1321.82 1484.64 1326.3C1484.64 1330.78 1483.78 1334.72 1482.05 1338.11C1480.32 1341.5 1477.92 1344.13 1474.85 1345.98ZM1556.85 1360H1570.29V1292.9H1556.85V1338.98L1526.42 1292.9H1512.98V1360H1526.42V1314.02L1556.85 1360Z" fill="#3A4750"/>
</svg>
